<?xml version="1.0" encoding="utf-8"?>
<!-- Generator: Adobe Illustrator 16.0.3, SVG Export Plug-In . SVG Version: 6.00 Build 0)  -->
<!DOCTYPE svg PUBLIC "-//W3C//DTD SVG 1.1//EN" "http://www.w3.org/Graphics/SVG/1.1/DTD/svg11.dtd">
<svg version="1.1" id="Layer_1" xmlns="http://www.w3.org/2000/svg" xmlns:xlink="http://www.w3.org/1999/xlink" x="0px" y="0px"
	 width="595.279px" height="595.281px" viewBox="0 0 595.279 595.281" enable-background="new 0 0 595.279 595.281"
	 xml:space="preserve">
<g id="image_elements">
</g>
<g id="_x26_" display="none">
	<g display="inline">
		<path fill="#C7D530" d="M491.151,332.32h-4.021l7.775,21.451l-0.805,2.234c-0.446,1.342-1.072,2.323-1.698,2.771
			c-0.715,0.536-1.698,0.805-2.949,0.805l-0.982-0.09v3.039l1.431,0.269l0.715,0.09c2.949,0,5.096-1.787,6.437-5.452l8.759-25.116
			h-3.933l-5.096,16.268L491.151,332.32z M470.772,337.147c0.983-1.432,2.413-2.146,4.201-2.146c2.233,0,4.021,1.072,5.095,3.128
			v9.922c-1.073,2.146-2.86,3.219-5.185,3.219c-1.787,0-3.219-0.715-4.201-2.057c-0.982-1.431-1.52-3.308-1.52-5.811
			C469.253,340.633,469.788,338.577,470.772,337.147 M467.911,351.358c1.609,2.056,3.665,3.039,6.167,3.039
			c2.594,0,4.56-0.895,6.078-2.592v1.877c0,1.877-0.536,3.307-1.52,4.29c-0.982,0.982-2.413,1.52-4.2,1.52
			c-2.324,0-4.291-0.983-5.811-2.949l-1.967,2.234c0.805,1.162,1.967,2.056,3.396,2.771c1.52,0.626,3.039,0.983,4.559,0.983
			c2.771,0,5.005-0.805,6.703-2.413c1.698-1.609,2.503-3.844,2.503-6.614V332.32h-3.396l-0.18,2.413
			c-1.52-1.877-3.574-2.771-6.168-2.771c-2.592,0-4.646,0.983-6.256,3.039c-1.608,1.966-2.324,4.737-2.324,8.044
			C465.498,346.532,466.303,349.302,467.911,351.358 M447.444,337.147c1.161-1.432,2.592-2.146,4.469-2.146s3.396,0.715,4.47,2.234
			c1.162,1.52,1.697,3.396,1.697,5.81c0,2.683-0.535,4.737-1.697,6.258c-1.072,1.52-2.593,2.233-4.47,2.233
			s-3.396-0.715-4.469-2.145c-1.073-1.432-1.698-3.396-1.698-5.812C445.745,340.722,446.281,338.577,447.444,337.147
			 M441.99,343.224c0,3.396,0.896,6.078,2.771,8.134c1.787,2.056,4.201,3.039,7.149,3.039c1.967,0,3.664-0.446,5.185-1.431
			c1.52-0.895,2.682-2.233,3.485-3.933c0.805-1.699,1.251-3.576,1.251-5.721v-0.27c0-3.396-0.894-6.167-2.771-8.134
			c-1.788-2.056-4.201-3.039-7.15-3.039c-1.877,0-3.574,0.447-5.095,1.341c-1.52,0.896-2.682,2.235-3.486,3.935
			c-0.804,1.697-1.251,3.575-1.251,5.72v0.357L441.99,343.224L441.99,343.224z M436.986,323.203h-3.754v30.837h3.754V323.203z
			 M414.015,337.147c1.161-1.432,2.592-2.146,4.469-2.146s3.396,0.715,4.469,2.234c1.162,1.52,1.698,3.396,1.698,5.81
			c0,2.683-0.536,4.737-1.698,6.258c-1.071,1.52-2.592,2.233-4.469,2.233s-3.396-0.715-4.469-2.145
			c-1.073-1.432-1.698-3.396-1.698-5.812C412.317,340.722,412.853,338.577,414.015,337.147 M408.563,343.224
			c0,3.396,0.894,6.078,2.771,8.134c1.786,2.056,4.2,3.039,7.149,3.039c1.967,0,3.665-0.446,5.185-1.431
			c1.52-0.895,2.682-2.233,3.485-3.933s1.251-3.576,1.251-5.721v-0.27c0-3.396-0.894-6.167-2.771-8.134
			c-1.787-2.056-4.201-3.039-7.15-3.039c-1.877,0-3.575,0.447-5.095,1.341c-1.521,0.896-2.683,2.235-3.486,3.935
			c-0.804,1.697-1.251,3.575-1.251,5.72v0.357L408.563,343.224L408.563,343.224z M386.844,332.32v21.72h3.754v-15.463
			c0.536-1.072,1.251-1.877,2.145-2.503c0.896-0.626,1.968-0.983,3.129-0.983c1.521,0,2.593,0.357,3.308,1.162
			c0.715,0.715,1.072,1.877,1.072,3.486v14.391h3.755V339.65c0-5.185-2.324-7.776-6.973-7.776c-2.682,0-4.827,1.073-6.524,3.129
			l-0.089-2.771h-3.575L386.844,332.32L386.844,332.32z M367.894,323.203h-3.665v30.837h3.754v-15.463
			c0.537-1.072,1.252-1.877,2.146-2.503c0.894-0.625,1.967-0.983,3.128-0.983c1.52,0,2.593,0.358,3.308,1.162
			c0.715,0.715,1.072,1.877,1.072,3.486v14.391h3.754V339.65c0-5.185-2.323-7.776-6.972-7.776c-2.593,0-4.736,0.983-6.437,3.039
			v-11.709L367.894,323.203L367.894,323.203z M346.979,349.392c-1.073-1.342-1.52-3.309-1.52-5.812v-0.715
			c0-2.592,0.535-4.559,1.52-5.899c1.072-1.34,2.502-2.056,4.379-2.056c1.431,0,2.593,0.447,3.576,1.341
			c0.981,0.896,1.52,2.057,1.607,3.486h3.486c-0.09-2.324-0.982-4.201-2.593-5.721c-1.608-1.431-3.664-2.146-6.078-2.146
			c-1.966,0-3.664,0.447-5.184,1.341c-1.431,0.896-2.593,2.146-3.309,3.845c-0.804,1.607-1.161,3.485-1.161,5.631v0.626
			c0,3.396,0.895,6.167,2.593,8.134c1.786,1.966,4.11,2.949,7.061,2.949c1.431,0,2.86-0.357,4.201-0.983
			c1.341-0.625,2.413-1.607,3.129-2.681c0.804-1.162,1.251-2.324,1.251-3.576h-3.485c-0.09,1.162-0.626,2.235-1.608,3.039
			c-0.983,0.805-2.146,1.162-3.485,1.162C349.481,351.358,348.052,350.733,346.979,349.392 M333.124,336.521
			c0.895,1.071,1.432,2.503,1.521,4.38v0.268H323.74c0.269-1.966,0.895-3.484,1.877-4.559c0.983-1.072,2.234-1.608,3.754-1.608
			C330.979,334.912,332.231,335.448,333.124,336.521 M338.131,350.196l-2.235-1.787c-0.715,0.895-1.52,1.608-2.413,2.146
			c-0.894,0.536-2.056,0.805-3.307,0.805c-1.877,0-3.396-0.625-4.56-1.966s-1.788-3.039-1.877-5.186h14.748v-1.52
			c0-3.485-0.805-6.167-2.324-7.955c-1.608-1.877-3.754-2.771-6.613-2.771c-1.698,0-3.309,0.447-4.826,1.431
			c-1.521,0.982-2.593,2.323-3.486,3.934c-0.805,1.698-1.251,3.575-1.251,5.811v0.715c0,3.218,0.895,5.81,2.771,7.775
			c1.877,1.967,4.2,2.86,7.149,2.86C333.572,354.397,336.253,353.056,338.131,350.196 M319.092,324.812h-22.613v3.128h9.386v26.1
			h3.843v-26.1h9.386L319.092,324.812L319.092,324.812z M269.663,328.566c0.626-0.715,1.521-1.072,2.593-1.072
			c0.982,0,1.877,0.269,2.502,0.895c0.626,0.626,0.983,1.341,0.983,2.233c0,0.806-0.179,1.521-0.536,2.146
			c-0.356,0.625-0.982,1.162-1.877,1.877l-2.324,1.698c-1.607-1.968-2.413-3.575-2.413-4.827
			C268.77,330.264,269.038,329.281,269.663,328.566 M267.876,349.928c-0.982-0.983-1.52-2.234-1.52-3.755
			c0-1.697,1.072-3.396,3.396-5.095l0.626-0.447l7.15,8.491c-1.609,1.521-3.396,2.234-5.363,2.234
			C270.289,351.358,268.948,350.912,267.876,349.928 M265.195,352.163c1.698,1.521,4.021,2.234,6.883,2.234
			c1.341,0,2.771-0.269,4.021-0.715c1.341-0.447,2.503-1.162,3.485-2.057l1.966,2.324h4.471l-4.201-5.006
			c1.609-2.234,2.503-5.095,2.503-8.491h-3.396c0,2.146-0.447,4.022-1.342,5.811l-6.524-7.776l2.146-1.608
			c1.521-1.071,2.503-2.146,3.129-3.128c0.625-0.982,0.895-2.057,0.895-3.308c0-1.788-0.626-3.218-1.967-4.469
			c-1.342-1.162-2.949-1.788-5.006-1.788c-2.233,0-4.021,0.626-5.362,1.877c-1.341,1.252-1.966,3.039-1.966,5.185
			c0,0.983,0.179,1.877,0.625,2.86c0.446,0.981,1.341,2.233,2.592,3.843c-2.234,1.609-3.664,2.95-4.469,4.111
			c-0.806,1.162-1.162,2.503-1.162,3.844C262.603,348.677,263.496,350.643,265.195,352.163"/>
	</g>
</g>
<g>
	<polygon fill="#FFFFFF" points="195.09,272.184 190.278,273.559 188.215,279.058 183.401,283.528 183.401,290.059 188.215,290.059 
		190.278,294.53 194.402,294.871 197.839,290.059 202.654,292.121 206.091,285.936 206.778,281.466 206.091,274.934 
		198.871,274.934 	"/>
	<path fill="#FFFFFF" d="M221.216,243.992l3.096-1.029v-2.406c0,0,0-2.407-3.096-4.124l-9.968-5.503v6.877l7.564,3.437
		L221.216,243.992z"/>
	<polygon fill="#FFFFFF" points="169.65,267.715 165.181,267.028 161.402,268.403 162.431,277.684 161.402,281.466 161.402,284.215 
		169.65,284.557 175.153,287.652 178.931,280.091 183.401,274.588 180.31,271.493 175.839,267.028 	"/>
	<polygon fill="#FFFFFF" points="211.935,272.872 212.281,277.338 214.343,282.495 221.216,279.058 224.311,273.901 
		218.812,269.432 208.498,264.962 205.058,267.715 	"/>
	<polygon fill="#FFFFFF" points="206.091,247.432 209.527,259.121 217.779,262.9 225.344,261.183 221.216,250.524 217.779,250.524 
		217.779,246.4 211.248,243.992 	"/>
	<path fill="#FFFFFF" d="M146.272,256.714l-3.09,0.688l-1.375,5.157l-6.531,3.437c0,1.033,2.404,11.343,2.404,11.343h5.844h5.503
		l3.437-5.152l4.47-4.47l0.688-4.47h-6.532L146.272,256.714z"/>
	<polygon fill="#FFFFFF" points="160.369,356.409 167.246,357.784 169.309,356.409 169.65,351.939 172.399,348.157 172.399,345.408 
		169.309,341.28 167.246,338.189 162.777,338.189 160.369,341.627 156.931,341.28 154.87,344.721 154.182,348.157 154.87,355.719 	
		"/>
	<polygon fill="#FFFFFF" points="180.997,312.062 183.059,310.342 178.931,305.872 181.339,299.686 177.556,295.904 
		173.778,295.904 170.683,295.904 166.213,296.933 166.213,301.06 162.777,305.872 164.838,310.342 169.65,312.75 173.778,316.186 	
		"/>
	<polygon fill="#FFFFFF" points="153.15,304.498 158.649,297.966 161.402,296.933 161.743,292.468 158.649,290.059 157.961,285.936 
		145.243,283.528 143.182,284.902 142.836,292.121 139.741,294.183 139.053,297.966 142.148,301.06 148.338,305.872 	"/>
	<polygon fill="#FFFFFF" points="153.15,333.032 160.369,330.97 165.181,330.97 165.181,324.78 166.213,319.281 161.743,317.219 
		156.245,311.029 152.117,313.436 152.117,320.656 148.338,323.06 152.805,327.188 	"/>
	<polygon fill="#FFFFFF" points="117.054,306.906 113.273,315.499 115.335,321.685 121.178,323.751 122.553,319.623 
		120.491,314.124 120.146,308.622 	"/>
	<polygon fill="#FFFFFF" points="239.095,278.371 237.375,284.215 235.655,285.936 239.782,287.652 242.532,293.154 
		244.594,295.904 248.376,292.468 250.092,287.652 249.405,282.495 244.939,279.058 	"/>
	<polygon fill="#FFFFFF" points="183.401,263.587 188.215,264.962 194.06,265.995 201.279,258.089 197.839,253.965 194.747,247.432 
		188.215,249.494 180.997,249.494 181.339,255.339 178.931,260.496 	"/>
	<path fill="#FFFFFF" d="M145.931,246.4l1.375-4.47l4.47-3.438l-1.375-3.437l-3.782-1.034c-2.062,1.034-4.125,2.408-6.189,3.783
		c0,0-0.343,0-0.343,0.342l-1.375,5.844L145.931,246.4z"/>
	<path fill="#FFFFFF" d="M124.274,258.089l2.062,6.187l3.438-0.688l3.437-3.778l2.066-0.69l3.091-2.404l-1.029-4.814v-5.5
		l-5.503-2.063c-1.028,1.028-2.062,1.717-2.749,2.749l-2.406,3.096l-1.029,0.688c-1.034,1.029-1.721,2.063-2.75,3.095
		L124.274,258.089z"/>
	<polygon fill="#FFFFFF" points="201.967,315.153 206.091,315.153 207.811,306.906 206.091,301.06 200.246,299.686 195.09,299.686 
		184.775,304.498 190.278,310.342 188.558,314.812 191.994,317.219 190.278,319.623 195.09,320.656 	"/>
	<path fill="#FFFFFF" d="M169.309,242.963l-2.753-2.062l-5.499,3.438l-5.846-1.375l-2.406,2.404v3.783l-0.344,6.877h5.845
		l3.782,3.782l3.093,0.688l3.439-4.469c0,0,3.438-4.47,1.375-6.19c0,0-3.095-2.062-2.062-2.062
		C169.309,247.432,169.309,242.963,169.309,242.963z"/>
	<polygon fill="#FFFFFF" points="140.086,352.281 137.337,349.186 134.242,350.219 135.617,355.377 145.243,362.25 150.4,360.187 
		148.338,355.719 148.338,352.969 	"/>
	<polygon fill="#FFFFFF" points="127.71,296.933 132.867,296.933 134.242,288.685 136.304,283.528 133.209,280.091 127.71,280.433 
		124.274,280.433 122.553,284.557 118.771,287.997 122.553,292.121 122.553,299.686 	"/>
	<path fill="#FFFFFF" d="M136.304,320.31l3.095,2.75l0.687-1.718l0.688-6.53h2.749c1.375,0,1.375-4.125,1.375-4.125l-4.124-1.033
		l-0.345-4.123l-4.467-3.096l-8.938,3.782v5.156l2.749,3.091l-1.716,4.815L136.304,320.31z"/>
	<polygon fill="#FFFFFF" points="178.931,338.189 184.775,340.251 188.215,338.189 190.278,330.97 191.994,328.562 182.714,321.685 
		175.839,324.78 172.399,324.78 173.087,331.657 173.087,338.189 	"/>
	<polygon fill="#FFFFFF" points="200.246,341.28 206.091,341.28 210.56,343.687 212.969,341.28 213.655,334.406 217.433,332.345 
		217.779,328.218 211.935,325.468 208.498,322.372 202.654,325.468 196.465,327.188 196.81,339.564 	"/>
	<polygon fill="#FFFFFF" points="136.304,342.313 139.741,342.654 145.243,348.157 148.338,345.408 146.96,341.28 149.367,334.406 
		143.182,330.97 142.148,328.218 133.209,328.562 131.147,330.97 133.896,336.814 	"/>
	<path fill="#FFFFFF" d="M182.371,368.782l-4.814-6.187l-8.248,1.032l-5.157-1.379l-2.408,4.471l5.502,3.095l3.091,3.782
		c4.128,0.688,8.252,1.375,12.377,1.375L182.371,368.782z"/>
	<path fill="#FFFFFF" d="M125.649,342.654l3.437,0.692l0.346-3.441l-3.782-3.437l1.716-4.47l-3.091-1.376l-0.688,0.347l-5.503-4.128
		v7.563l1.721,3.095c0.687,1.029,1.028,1.718,1.72,2.75L125.649,342.654z"/>
	<path fill="#FFFFFF" d="M112.585,304.498l4.471-4.812l0.688-2.753l-2.753-3.779l-0.341-4.469h-3.095l-2.75,3.437
		c-0.346,2.408-0.346,5.157-0.346,7.565L112.585,304.498z"/>
	<path fill="#FFFFFF" d="M247.688,341.28l-3.094-6.874l-6.188-1.374l-1.72-1.032c0,0-1.721-1.028-4.812,0.347l-9.626,4.469
		l4.124,10.997l10.656-2.403h7.564L247.688,341.28z"/>
	<polygon fill="#FFFFFF" points="190.278,361.562 195.09,360.187 195.777,354.003 198.871,353.314 196.81,348.5 193.372,347.811 
		190.278,344.721 184.775,344.721 183.401,349.186 180.31,348.157 178.931,350.219 178.931,357.438 182.714,361.22 188.215,360.187 
			"/>
	<path fill="#FFFFFF" d="M259.032,289.027l-6.187,6.877l-2.065,2.75l2.753,5.844l3.437,2.408l1.375,0.341
		c0,0,1.375,0.347,1.375-3.091v-6.532C260.064,294.871,259.719,291.78,259.032,289.027z"/>
	<path fill="#FFFFFF" d="M113.614,281.466l2.066,1.029l4.124-2.062l0.687-3.096l2.408-3.778l-0.688-2.407l-1.721-3.438l-5.156-0.688
		l-2.75,6.531c-0.688,1.375-1.033,3.091-1.375,4.467L113.614,281.466z"/>
	<polygon fill="#FFFFFF" points="224.999,353.314 218.812,360.187 217.433,362.941 224.311,363.629 232.906,355.377 	"/>
	<path fill="#FFFFFF" d="M159.335,369.814l-0.341-3.095l-5.844-2.749l-2.408,1.032l0.346,2.403c2.063,1.032,4.124,2.065,6.532,2.753
		h1.716L159.335,369.814L159.335,369.814z"/>
	<polygon fill="#FFFFFF" points="234.967,297.279 233.937,291.434 228.094,289.714 226.031,285.59 223.279,284.557 218.121,288.34 
		213.998,294.183 218.121,300.716 221.562,298.311 232.906,302.777 	"/>
	<polygon fill="#FFFFFF" points="224.311,325.468 229.123,316.186 231.876,315.153 230.155,308.28 221.216,305.531 218.812,309.997 
		212.969,315.153 216.059,320.656 219.842,320.656 	"/>
	<polygon fill="#FFFFFF" points="217.092,354.003 218.812,348.157 212.969,345.408 208.498,350.219 204.029,351.939 
		206.091,360.187 211.935,360.187 	"/>
	<polygon fill="#FFFFFF" points="191.994,366.719 196.465,369.814 200.246,372.91 208.498,370.847 208.84,366.719 204.371,363.282 
		202.654,366.033 195.777,364.315 	"/>
	<polygon fill="#FFFFFF" points="247.001,327.188 249.405,322.372 253.188,321.685 258.344,313.436 251.47,311.717 246.656,305.531 
		242.185,310.342 237.716,309.997 237.03,315.153 234.967,320.656 239.436,324.78 	"/>
	<polygon fill="#FFFFFF" points="240.811,259.808 237.375,262.9 232.563,262.9 230.843,268.744 231.876,272.872 236.342,270.806 
		239.436,272.872 244.248,272.872 245.968,269.432 244.248,265.653 	"/>
	<path fill="#FFFFFF" d="M197.839,231.961h-3.438l-1.375,1.375l1.033,1.375l0.341,5.845l5.157,2.062l5.157-2.062l-1.375-5.845
		l-1.375-8.252c-0.347,0-0.347,0-0.688-0.342L197.839,231.961z"/>
	<polygon fill="#FFFFFF" points="178.931,232.99 170.337,234.369 170.337,237.461 174.807,238.835 174.807,243.304 177.214,243.304 
		181.339,241.93 187.529,239.868 187.529,234.369 187.529,231.616 183.401,226.459 177.214,226.459 	"/>
	<path fill="#FFFFFF" d="M234.625,243.992l-4.815,0.688l-1.375,2.753l0.688,2.75l5.157,5.156l2.75-3.782l0.345-4.812
		C236.342,245.713,235.655,244.679,234.625,243.992z"/>
	<path fill="#FFFFFF" d="M156.931,232.99v6.19l5.5-4.47l2.406-1.028l3.438-2.408l-2.749-4.469
		c-3.438,0.687-6.877,2.062-10.314,3.437L156.931,232.99z"/>
</g>
<g>
	
		<rect x="372.641" y="382.506" transform="matrix(0.2584 -0.966 0.966 0.2584 -98.0907 651.679)" fill="#FFFFFF" width="5.503" height="14.44"/>
	
		<rect x="364.275" y="357.832" transform="matrix(0.8659 -0.5002 0.5002 0.8659 -130.5429 234.1494)" fill="#FFFFFF" width="14.439" height="5.497"/>
	
		<rect x="340.737" y="339.584" transform="matrix(0.2587 -0.966 0.966 0.2587 -72.7374 589.8856)" fill="#FFFFFF" width="14.443" height="5.499"/>
	<polygon fill="#FFFFFF" points="312.163,341.175 316.931,338.426 324.145,350.933 319.385,353.682 	"/>
	
		<rect x="372.569" y="388.412" transform="matrix(0.2585 -0.966 0.966 0.2585 -96.2609 656.9155)" fill="#FFFFFF" width="14.441" height="5.502"/>
	
		<rect x="372.873" y="350.913" transform="matrix(0.8661 -0.4999 0.4999 0.8661 -128.7283 235.7348)" fill="#FFFFFF" width="5.499" height="14.438"/>
	
		<rect x="346.341" y="330.425" transform="matrix(0.2581 -0.9661 0.9661 0.2581 -67.2251 587.744)" fill="#FFFFFF" width="5.497" height="14.44"/>
	
		<rect x="308.524" y="339.622" transform="matrix(0.8657 -0.5005 0.5005 0.8657 -128.9651 203.9989)" fill="#FFFFFF" width="14.439" height="5.502"/>
	
		<rect x="372.641" y="382.506" transform="matrix(0.2584 -0.966 0.966 0.2584 -98.0907 651.679)" fill="#FFFFFF" width="5.503" height="14.44"/>
	
		<rect x="364.275" y="357.832" transform="matrix(0.8659 -0.5002 0.5002 0.8659 -130.5429 234.1494)" fill="#FFFFFF" width="14.439" height="5.497"/>
	
		<rect x="340.737" y="339.584" transform="matrix(0.2587 -0.966 0.966 0.2587 -72.7374 589.8856)" fill="#FFFFFF" width="14.443" height="5.499"/>
	<polygon fill="#FFFFFF" points="312.163,341.175 316.931,338.426 324.145,350.933 319.385,353.682 	"/>
	
		<rect x="297.332" y="362.599" transform="matrix(0.259 -0.9659 0.9659 0.259 -134.8316 563.8915)" fill="#FFFFFF" width="5.498" height="14.437"/>
	
		<rect x="296.544" y="396.633" transform="matrix(0.8659 -0.5002 0.5002 0.8659 -159.0349 205.4827)" fill="#FFFFFF" width="14.434" height="5.501"/>
	
		<rect x="320.137" y="414.834" transform="matrix(0.2586 -0.966 0.966 0.2586 -160.6773 625.8214)" fill="#FFFFFF" width="14.437" height="5.502"/>
	
		<rect x="354.697" y="406.587" transform="matrix(0.866 -0.5 0.5 0.866 -159.0214 234.1836)" fill="#FFFFFF" width="5.5" height="14.437"/>
	
		<rect x="372.569" y="388.412" transform="matrix(0.2585 -0.966 0.966 0.2585 -96.2609 656.9155)" fill="#FFFFFF" width="14.441" height="5.502"/>
	
		<rect x="372.873" y="350.913" transform="matrix(0.8661 -0.4999 0.4999 0.8661 -128.7283 235.7348)" fill="#FFFFFF" width="5.499" height="14.438"/>
	
		<rect x="346.341" y="330.425" transform="matrix(0.2581 -0.9661 0.9661 0.2581 -67.2251 587.744)" fill="#FFFFFF" width="5.497" height="14.44"/>
	
		<rect x="308.524" y="339.622" transform="matrix(0.8657 -0.5005 0.5005 0.8657 -128.9651 203.9989)" fill="#FFFFFF" width="14.439" height="5.502"/>
	
		<rect x="288.575" y="365.894" transform="matrix(0.2588 -0.9659 0.9659 0.2588 -136.8369 558.9681)" fill="#FFFFFF" width="14.442" height="5.502"/>
	
		<rect x="297.219" y="394.6" transform="matrix(0.866 -0.5 0.5 0.866 -160.712 203.7958)" fill="#FFFFFF" width="5.5" height="14.438"/>
	
		<rect x="323.854" y="414.861" transform="matrix(0.2581 -0.9661 0.9661 0.2581 -165.4785 628.6668)" fill="#FFFFFF" width="5.501" height="14.441"/>
	
		<rect x="352.227" y="414.847" transform="matrix(0.8659 -0.5002 0.5002 0.8659 -160.6926 235.8155)" fill="#FFFFFF" width="14.438" height="5.501"/>
	<g>
		<ellipse fill="#FFFFFF" cx="337.765" cy="379.721" rx="31.971" ry="31.971"/>
	</g>
	<polygon fill="#FFFFFF" points="328.818,361.909 328.473,362.595 327.444,361.909 327.785,362.941 326.411,362.595 326.411,363.97 
		325.036,363.282 325.036,364.658 324.694,364.315 324.694,365.004 323.66,365.344 324.349,366.378 323.32,365.69 323.32,366.719 
		321.941,366.378 322.286,367.407 321.255,367.065 321.599,368.094 320.225,367.407 320.911,369.128 319.536,368.782 
		319.88,369.814 318.505,369.814 318.85,370.847 317.817,371.188 318.505,372.222 317.476,372.222 317.817,373.252 316.101,373.938 
		317.131,374.971 315.756,375.659 316.787,376.346 314.722,376.691 316.442,377.72 315.756,378.409 316.101,379.095 314.722,379.44 
		315.756,380.469 314.722,381.504 315.408,382.19 314.722,382.878 315.756,383.564 315.068,384.598 316.442,384.598 
		315.408,385.972 316.442,386.661 315.756,388.035 317.476,388.035 316.787,389.067 318.162,389.41 317.817,390.785 
		319.192,390.096 318.85,391.471 320.566,390.785 320.225,392.159 321.599,392.505 321.255,393.88 322.286,393.88 321.941,394.913 
		324.349,393.534 323.66,394.913 324.694,395.254 324.694,396.287 325.383,395.942 325.036,397.662 326.411,396.973 
		326.069,398.003 326.069,399.378 327.098,398.348 327.098,400.066 328.132,398.691 328.473,399.723 329.507,399.037 
		329.851,401.097 330.538,399.723 331.226,401.097 332.601,399.723 332.942,400.753 334.317,399.378 334.317,400.753 
		335.696,400.066 336.725,401.786 337.412,400.753 338.445,401.444 338.445,400.066 340.161,400.066 340.508,399.378 
		340.848,400.411 341.883,399.037 342.915,401.097 343.257,398.691 344.632,400.066 344.632,398.003 345.664,399.037 
		347.039,396.973 347.726,398.348 348.072,396.287 349.788,397.662 350.135,395.599 350.475,396.629 350.821,394.567 
		352.195,395.599 352.195,393.192 353.912,394.22 352.884,391.471 354.946,392.845 354.603,390.785 355.633,391.13 355.633,389.41 
		356.665,389.756 356.665,389.067 357.695,389.067 357.008,387.69 358.382,387.347 357.695,386.661 358.382,386.315 358.04,385.286 
		359.07,384.94 358.04,383.911 359.07,382.878 358.04,382.19 359.07,381.504 358.382,380.469 359.757,379.783 359.07,379.095 
		360.789,378.754 358.727,378.066 359.757,377.38 358.727,376.691 359.757,375.659 358.382,375.317 360.102,374.626 358.04,373.938 
		359.07,373.252 357.695,372.563 359.07,371.188 358.04,371.188 359.07,369.814 357.352,369.814 357.695,368.782 357.008,368.782 
		358.04,366.719 356.321,367.407 356.321,366.378 355.291,366.378 355.633,365.344 354.258,365.344 354.946,364.315 353.912,363.97 
		354.603,362.595 352.884,362.941 353.57,361.562 352.195,361.909 352.537,360.533 351.163,361.22 351.163,359.846 349.788,361.22 
		350.135,358.813 349.1,359.846 349.1,358.126 348.072,359.501 348.072,357.438 347.039,358.813 346.351,356.409 346.006,357.784 
		344.977,356.752 344.632,357.784 343.943,356.063 343.602,357.784 342.915,356.409 342.227,357.784 341.54,356.752 
		340.848,358.813 340.508,357.438 339.82,359.158 339.133,357.438 338.787,359.158 338.099,357.784 337.759,359.846 
		336.725,358.813 336.725,360.187 335.35,359.158 335.35,360.187 334.317,359.158 333.975,360.533 333.631,359.158 333.288,360.533 
		332.601,359.501 332.601,360.876 331.568,359.846 331.568,361.22 330.881,360.876 330.538,361.562 329.851,360.533 
		329.851,361.909 	"/>
</g>
<g>
	<polygon fill="#FFFFFF" points="367.667,249.149 379.01,252.931 380.038,251.211 369.384,245.366 	"/>
	<polygon fill="#FFFFFF" points="367.667,249.149 379.01,252.931 380.038,251.211 369.384,245.366 	"/>
	<polygon fill="#FFFFFF" points="447.423,283.869 436.762,278.026 437.796,276.309 449.138,280.091 	"/>
	<polygon fill="#FFFFFF" points="447.423,283.869 436.762,278.026 437.796,276.309 449.138,280.091 	"/>
	<g>
		<path fill="#FFFFFF" d="M436.422,276.65c6.873-15.467-0.348-33.346-15.813-40.219c-15.471-6.877-33.347,0.342-40.224,15.812
			c-6.877,15.471,0.346,33.346,15.813,40.223C411.667,299.341,429.544,292.121,436.422,276.65"/>
		<path fill="#FFFFFF" d="M380.291,252.74c6.738-15.494,24.764-22.593,40.262-15.854c15.492,6.737,22.592,24.763,15.854,40.256
			c-6.739,15.498-24.764,22.596-40.262,15.857C380.652,286.26,373.552,268.237,380.291,252.74z"/>
	</g>
	<polygon fill="#FFFFFF" points="393.103,305.531 396.885,293.843 394.823,293.154 388.979,303.81 	"/>
	<polygon fill="#FFFFFF" points="393.103,305.531 396.885,293.843 394.823,293.154 388.979,303.81 	"/>
	<polygon fill="#FFFFFF" points="427.826,225.43 421.983,236.086 419.92,235.398 423.698,223.709 	"/>
	<polygon fill="#FFFFFF" points="427.826,225.43 421.983,236.086 419.92,235.398 423.698,223.709 	"/>
	<polygon fill="#FFFFFF" points="368.697,282.495 379.698,277.338 378.664,275.276 366.976,278.718 	"/>
	<polygon fill="#FFFFFF" points="368.697,282.495 379.698,277.338 378.664,275.276 366.976,278.718 	"/>
	<polygon fill="#FFFFFF" points="449.826,250.524 438.137,253.965 437.108,251.899 448.109,246.745 	"/>
	<polygon fill="#FFFFFF" points="449.826,250.524 438.137,253.965 437.108,251.899 448.109,246.745 	"/>
	<polygon fill="#FFFFFF" points="426.451,304.498 420.948,293.496 418.888,294.183 422.323,305.872 	"/>
	<polygon fill="#FFFFFF" points="426.451,304.498 420.948,293.496 418.888,294.183 422.323,305.872 	"/>
	<polygon fill="#FFFFFF" points="394.482,223.367 397.917,235.057 395.856,235.744 390.353,224.743 	"/>
	<polygon fill="#FFFFFF" points="394.482,223.367 397.917,235.057 395.856,235.744 390.353,224.743 	"/>
</g>
<path fill="#FFFFFF" d="M173.778,201.024c30.938,0,60.502,12.372,78.722,33.346c40.225,46.063,26.473,93.505,18.908,111.727
	l-0.341,1.028c-12.377,25.785-36.101,44.693-65.664,52.253c-28.535,7.565-51.221,27.16-61.88,53.634
	c-18.22,45.721,4.128,97.976,49.85,116.194c10.656,4.124,21.657,6.531,33.001,6.531c36.782,0,69.44-22.002,83.195-56.381
	c10.656-26.813,7.907-57.065-7.91-81.475c-1.375-2.063-2.75-4.125-3.778-5.847c-14.438-22.344-28.191-43.659-14.782-78.38v-0.342
	c0.687-1.375,14.438-30.942,45.721-34.033c2.75-0.345,5.499-0.345,8.252-0.345c42.969,0,59.815,35.065,61.535,65.315
	c1.029,22.002,13.751,42.285,33.69,54.315c10.999,6.532,23.375,9.972,36.096,9.972c25.095,0,47.438-12.721,60.161-34.033
	c9.627-16.157,12.376-35.065,7.905-53.285c-4.471-18.221-15.813-33.691-31.972-43.313c-12.029-7.224-25.438-11.001-37.814-11.001
	c-9.627,0-18.221,2.063-25.781,6.53c-8.595,5.157-22.348,11.002-38.161,11.002c-14.093,0-34.375-5.157-49.505-29.567
	c-12.376-19.937-7.561-46.751,3.441-62.91l0.342-0.345c21.314-26.813,47.783-30.592,71.162-30.592c5.844,0,11.688,0.341,16.5,0.341
	c29.221,1.375,56.381-11.343,74.256-34.033c14.783-18.908,21.313-42.285,18.564-65.663c-2.753-23.719-14.783-45.033-33.347-59.813
	c-15.815-12.722-35.064-19.253-55.347-19.253c-27.503,0-53.288,12.375-70.133,34.033c-18.908,24.063-25.096,54.66-15.813,79.759
	c12.377,34.033,13.752,57.752-14.782,86.287c-13.404,12.376-29.906,18.906-47.097,18.906c-19.251,0-37.472-8.252-52.255-23.723
	l-0.342-0.688c-23.377-31.625-16.846-53.628-9.28-79.068c0.688-2.063,1.375-4.124,1.716-6.187c7.564-26.127,0-56.382-19.937-79.067
	c-16.846-19.253-41.598-30.596-67.383-30.596c-21.657,0-42.627,7.906-58.786,22.344C57.582,77.263,53.8,133.64,86.458,170.769
	c16.847,19.253,41.595,30.596,67.378,30.596c2.75,0,5.846,0,8.94-0.341C166.901,201.365,170.337,201.024,173.778,201.024z"/>
<g>
	<path fill="#FFFFFF" d="M355.291,166.987c-0.346-3.091-3.097-5.153-6.19-4.813c-2.062,0.347-3.781,1.722-4.469,3.783l-5.499,0.688
		c-0.688-4.813-2.749-9.626-5.502-14.098l4.469-3.437c1.721,1.033,4.128,1.033,5.844-0.345c2.408-1.717,3.097-5.153,1.034-7.563
		c-1.721-2.407-5.157-3.095-7.564-1.033c-1.717,1.375-2.403,3.441-2.062,5.504l-4.47,3.437c-3.438-4.124-7.221-7.219-11.688-9.281
		l2.407-5.157c2.062,0,4.124-1.375,5.157-3.437c1.375-2.753,0-6.189-2.749-7.219c-2.753-1.379-6.19,0-7.221,2.749
		c-1.031,2.062-0.346,4.124,1.029,5.845l-2.408,5.157c-4.811-1.721-9.622-2.407-14.778-2.407l-0.688-5.845
		c1.716-1.033,3.094-3.096,2.749-5.499c-0.346-3.096-3.095-5.157-6.188-4.815c-3.095,0.345-5.155,3.095-4.813,6.19
		c0.345,2.062,1.72,3.778,3.782,4.466l0.687,5.845c-4.811,0.691-9.627,2.753-14.096,5.502l-3.438-4.469
		c1.033-1.721,1.033-4.124-0.341-5.845c-1.721-2.407-5.157-3.096-7.564-1.029c-2.407,1.717-3.096,5.153-1.032,7.562
		c1.379,1.721,3.439,2.407,5.503,2.063l3.436,4.47c-4.124,3.438-7.219,7.22-9.28,11.688l-5.156-2.408
		c0-2.063-1.374-4.124-3.438-5.157c-2.749-1.375-6.188,0-7.218,2.753c-1.375,2.749,0,6.187,2.749,7.219
		c2.063,1.028,4.124,0.342,5.844-1.032l5.157,2.407c-1.72,4.812-2.407,9.626-2.407,14.779l-5.844,0.688
		c-1.029-1.716-3.095-3.091-5.499-2.749c-3.096,0.346-5.157,3.095-4.815,6.189c0.346,3.092,3.095,5.157,6.19,4.812
		c2.062-0.341,3.781-1.72,4.469-3.782l5.845-0.688c0.688,4.814,2.749,9.627,5.499,13.75l-4.471,3.44
		c-1.716-1.033-4.124-1.033-5.844,0.342c-2.404,1.721-3.092,5.157-1.029,7.565c1.717,2.404,5.157,3.09,7.563,1.028
		c1.72-1.375,2.406-3.438,2.061-5.499l4.816-3.438c3.436,4.124,7.219,7.219,11.688,9.281l-2.405,5.157
		c-2.063,0-4.125,1.375-5.157,3.437c-1.375,2.75,0,6.188,2.749,7.219c2.754,1.375,6.188,0,7.219-2.75
		c1.033-2.062,0.346-4.124-1.029-5.844l2.404-5.157c4.815,1.721,9.626,2.407,14.783,2.407l0.688,5.845
		c-1.719,1.029-3.097,3.092-2.751,5.499c0.343,3.096,3.097,5.157,6.187,4.812c3.095-0.341,5.157-3.09,4.816-6.187
		c-0.348-2.062-1.723-3.781-3.782-4.47l-0.688-5.844c5.499-1.029,11.001-3.095,15.813-6.874
		c10.659-7.564,15.471-19.941,14.783-31.973l5.845-0.687c1.028,1.716,3.095,3.091,5.498,2.75
		C353.57,172.831,355.633,170.081,355.291,166.987z M319.88,196.896c-13.405,9.626-31.973,6.877-41.595-6.532
		c-9.627-13.063-6.878-31.971,6.531-41.597c13.063-9.624,31.971-6.874,41.595,6.53C335.696,168.365,332.942,187.269,319.88,196.896z
		"/>
	<path fill="#FFFFFF" d="M302.004,151.861c-12.03,0-22.003,9.281-22.003,20.97c0,11.689,9.973,20.975,22.003,20.975
		s22.004-9.285,22.004-20.975C324.008,161.142,314.382,151.861,302.004,151.861z M292.377,165.27c2.063,0,3.438,1.716,3.438,3.782
		c0,2.062-1.716,3.778-3.438,3.778c-2.062,0-3.437-1.717-3.437-3.778C288.596,166.987,290.316,165.27,292.377,165.27z
		 M292.377,187.269c-2.062,0-3.437-1.717-3.437-3.779c0-2.062,1.721-3.783,3.437-3.783c2.063,0,3.438,1.721,3.438,3.783
		S294.44,187.269,292.377,187.269z M295.473,163.895c-2.063,0-3.438-1.722-3.438-3.783c0-2.063,1.716-3.782,3.438-3.782
		c2.062,0,3.436,1.72,3.436,3.782C298.909,162.174,297.534,163.895,295.473,163.895z M301.658,188.302
		c-2.062,0-3.437-1.721-3.437-3.782c0-2.063,1.721-3.783,3.437-3.783c2.066,0,3.441,1.72,3.441,3.783
		C305.1,186.582,303.38,188.302,301.658,188.302z M304.411,168.707c0-2.062,1.719-3.783,3.438-3.783
		c2.062,0,3.436,1.722,3.436,3.783c0,2.063-1.716,3.783-3.436,3.783S304.411,170.769,304.411,168.707z M311.284,184.865
		c-2.061,0-3.436-1.721-3.436-3.782s1.72-3.781,3.436-3.781c2.063,0,3.438,1.72,3.438,3.781S313.007,184.865,311.284,184.865z
		 M320.225,166.987c0,2.065-1.721,3.782-3.438,3.782c-2.064,0-3.439-1.717-3.439-3.782c0-2.063,1.721-3.778,3.439-3.778
		C318.505,163.208,320.225,164.924,320.225,166.987z"/>
</g>
</svg>
